<svg xmlns="http://www.w3.org/2000/svg" xmlns:xlink="http://www.w3.org/1999/xlink" width="450" height="450" viewBox="0 0 450 450"><rect width="100%" height="100%" fill="#DDDDDD"/><path d="M95.28 230.43L108.70 230.43L108.70 216.00Q108.70 213.96 108.98 211.49L108.98 211.49L95.28 230.43ZM115.26 230.43L120.81 230.43L120.81 234.79Q120.81 235.40 120.42 235.84Q120.02 236.28 119.29 236.28L119.29 236.28L115.26 236.28L115.26 247.05L108.70 247.05L108.70 236.28L90.10 236.28Q89.34 236.28 88.76 235.81Q88.18 235.34 88.02 234.64L88.02 234.64L87.23 230.83L108.12 202.92L115.26 202.92L115.26 230.43ZM136.31 209.78L134.75 218.96Q136.21 218.66 137.56 218.52Q138.90 218.38 140.15 218.38L140.15 218.38Q143.63 218.38 146.28 219.42Q148.93 220.46 150.73 222.29Q152.53 224.12 153.45 226.57Q154.36 229.03 154.36 231.86L154.36 231.86Q154.36 235.37 153.13 238.27Q151.89 241.16 149.70 243.22Q147.50 245.28 144.50 246.41Q141.49 247.54 137.95 247.54L137.95 247.54Q135.88 247.54 134.02 247.11Q132.16 246.69 130.53 245.97Q128.89 245.25 127.51 244.32Q126.12 243.39 125.02 242.35L125.02 242.35L127.34 239.15Q128.07 238.12 129.26 238.12L129.26 238.12Q130.02 238.12 130.82 238.60Q131.61 239.09 132.63 239.67Q133.65 240.25 135.04 240.74Q136.43 241.23 138.38 241.23L138.38 241.23Q140.45 241.23 142.04 240.56Q143.63 239.88 144.68 238.68Q145.73 237.47 146.26 235.81Q146.80 234.15 146.80 232.20L146.80 232.20Q146.80 228.60 144.71 226.57Q142.62 224.54 138.53 224.54L138.53 224.54Q135.39 224.54 132.10 225.70L132.10 225.70L127.40 224.36L131.06 202.95L152.84 202.95L152.84 206.15Q152.84 207.77 151.83 208.77Q150.82 209.78 148.41 209.78L148.41 209.78L136.31 209.78ZM191.60 225L191.60 225Q191.60 230.76 190.37 235.02Q189.13 239.27 186.95 242.05Q184.77 244.83 181.80 246.18Q178.82 247.54 175.38 247.54L175.38 247.54Q171.93 247.54 168.99 246.18Q166.04 244.83 163.88 242.05Q161.71 239.27 160.49 235.02Q159.27 230.76 159.27 225L159.27 225Q159.27 219.21 160.49 214.97Q161.71 210.73 163.88 207.95Q166.04 205.18 168.99 203.82Q171.93 202.46 175.38 202.46L175.38 202.46Q178.82 202.46 181.80 203.82Q184.77 205.18 186.95 207.95Q189.13 210.73 190.37 214.97Q191.60 219.21 191.60 225ZM183.82 225L183.82 225Q183.82 220.21 183.12 217.07Q182.42 213.93 181.25 212.07Q180.07 210.21 178.55 209.46Q177.02 208.71 175.38 208.71L175.38 208.71Q173.76 208.71 172.25 209.46Q170.74 210.21 169.58 212.07Q168.42 213.93 167.74 217.07Q167.05 220.21 167.05 225L167.05 225Q167.05 229.79 167.74 232.93Q168.42 236.07 169.58 237.93Q170.74 239.79 172.25 240.54Q173.76 241.29 175.38 241.29L175.38 241.29Q177.02 241.29 178.55 240.54Q180.07 239.79 181.25 237.93Q182.42 236.07 183.12 232.93Q183.82 229.79 183.82 225ZM240.04 236.96L236.04 240.89L225.70 230.55L215.27 240.95L211.28 237.02L221.71 226.56L211.76 216.61L215.73 212.65L225.67 222.59L235.55 212.71L239.58 216.67L229.67 226.59L240.04 236.96ZM266.45 230.43L279.87 230.43L279.87 216.00Q279.87 213.96 280.14 211.49L280.14 211.49L266.45 230.43ZM286.43 230.43L291.98 230.43L291.98 234.79Q291.98 235.40 291.58 235.84Q291.19 236.28 290.45 236.28L290.45 236.28L286.43 236.28L286.43 247.05L279.87 247.05L279.87 236.28L261.26 236.28Q260.50 236.28 259.92 235.81Q259.34 235.34 259.19 234.64L259.19 234.64L258.40 230.83L279.29 202.92L286.43 202.92L286.43 230.43ZM307.47 209.78L305.92 218.96Q307.38 218.66 308.72 218.52Q310.06 218.38 311.31 218.38L311.31 218.38Q314.79 218.38 317.45 219.42Q320.10 220.46 321.90 222.29Q323.70 224.12 324.61 226.57Q325.53 229.03 325.53 231.86L325.53 231.86Q325.53 235.37 324.29 238.27Q323.06 241.16 320.86 243.22Q318.67 245.28 315.66 246.41Q312.66 247.54 309.12 247.54L309.12 247.54Q307.05 247.54 305.18 247.11Q303.32 246.69 301.69 245.97Q300.06 245.25 298.67 244.32Q297.29 243.39 296.19 242.35L296.19 242.35L298.50 239.15Q299.24 238.12 300.43 238.12L300.43 238.12Q301.19 238.12 301.98 238.60Q302.77 239.09 303.80 239.67Q304.82 240.25 306.21 240.74Q307.59 241.23 309.55 241.23L309.55 241.23Q311.62 241.23 313.21 240.56Q314.79 239.88 315.84 238.68Q316.90 237.47 317.43 235.81Q317.96 234.15 317.96 232.20L317.96 232.20Q317.96 228.60 315.87 226.57Q313.79 224.54 309.70 224.54L309.70 224.54Q306.56 224.54 303.26 225.70L303.26 225.70L298.57 224.36L302.23 202.95L324.00 202.95L324.00 206.15Q324.00 207.77 323.00 208.77Q321.99 209.78 319.58 209.78L319.58 209.78L307.47 209.78ZM362.77 225L362.77 225Q362.77 230.76 361.53 235.02Q360.30 239.27 358.12 242.05Q355.94 244.83 352.96 246.18Q349.99 247.54 346.54 247.54L346.54 247.54Q343.10 247.54 340.15 246.18Q337.21 244.83 335.04 242.05Q332.88 239.27 331.66 235.02Q330.44 230.76 330.44 225L330.44 225Q330.44 219.21 331.66 214.97Q332.88 210.73 335.04 207.95Q337.21 205.18 340.15 203.82Q343.10 202.46 346.54 202.46L346.54 202.46Q349.99 202.46 352.96 203.82Q355.94 205.18 358.12 207.95Q360.30 210.73 361.53 214.97Q362.77 219.21 362.77 225ZM354.99 225L354.99 225Q354.99 220.21 354.29 217.07Q353.59 213.93 352.41 212.07Q351.24 210.21 349.71 209.46Q348.19 208.71 346.54 208.71L346.54 208.71Q344.93 208.71 343.42 209.46Q341.91 210.21 340.75 212.07Q339.59 213.93 338.90 217.07Q338.22 220.21 338.22 225L338.22 225Q338.22 229.79 338.90 232.93Q339.59 236.07 340.75 237.93Q341.91 239.79 343.42 240.54Q344.93 241.29 346.54 241.29L346.54 241.29Q348.19 241.29 349.71 240.54Q351.24 239.79 352.41 237.93Q353.59 236.07 354.29 232.93Q354.99 229.79 354.99 225Z" fill="#999999"/></svg>